<?xml version="1.0" encoding="utf-8"?>
<!-- Generator: Adobe Illustrator 13.0.2, SVG Export Plug-In . SVG Version: 6.00 Build 14948)  -->
<!DOCTYPE svg PUBLIC "-//W3C//DTD SVG 1.1//EN" "http://www.w3.org/Graphics/SVG/1.1/DTD/svg11.dtd">
<svg version="1.1" id="レイヤー_1" xmlns="http://www.w3.org/2000/svg" xmlns:xlink="http://www.w3.org/1999/xlink" x="0px"
	 y="0px" width="320px" height="320px" viewBox="0 0 320 320" enable-background="new 0 0 320 320" xml:space="preserve">
<g>
	<linearGradient id="SVGID_1_" gradientUnits="userSpaceOnUse" x1="160.2847" y1="0.4141" x2="160.2847" y2="320.4146">
		<stop  offset="0" style="stop-color:#FFFFFF"/>
		<stop  offset="0.0193" style="stop-color:#FFF9F8"/>
		<stop  offset="0.2354" style="stop-color:#FFBEAE"/>
		<stop  offset="0.4381" style="stop-color:#FF8D70"/>
		<stop  offset="0.6216" style="stop-color:#FF6640"/>
		<stop  offset="0.7822" style="stop-color:#FF4A1D"/>
		<stop  offset="0.9138" style="stop-color:#FF3908"/>
		<stop  offset="1" style="stop-color:#FF3300"/>
	</linearGradient>
	<rect x="0.285" y="0.414" fill="url(#SVGID_1_)" stroke="#FF3300" stroke-width="9.3204" width="320" height="320"/>
	<circle opacity="0.19" fill="#FFFFFF" cx="157.319" cy="-195.631" r="381.886"/>
	<rect x="0.285" fill="none" stroke="#CC3333" stroke-width="9.3204" width="320" height="320.414"/>
</g>
<ellipse fill="#CC3333" cx="52.737" cy="55.527" rx="46.745" ry="45.953"/>
<ellipse fill="#CC3333" cx="262.694" cy="48.396" rx="46.745" ry="45.953"/>
<path fill="#FFFFFF" stroke="#CC3333" stroke-width="9.5075" d="M292.01,138.719c0,60.385-58.174,109.336-129.936,109.336
	S32.137,199.104,32.137,138.719c0-60.383,58.176-118.844,129.938-118.844S292.01,78.336,292.01,138.719z"/>
<g>
	<path fill="none" stroke="#FF3300" stroke-width="16" d="M255,180c-14.789,18.202-40.936,37.947-92.137,37.947
		C105,217.947,82.051,194.883,65,179"/>
	<path fill="none" stroke="#FFFFFF" stroke-width="9" stroke-linecap="square" d="M255,180
		c-14.789,18.202-40.936,37.947-92.137,37.947C105,217.947,82.051,194.883,65,179"/>
	<path fill="none" stroke="#FF3300" stroke-width="28" stroke-dasharray="3.1692,9.5075" d="M255,180
		c-14.789,18.202-40.936,37.947-92.137,37.947C105,217.947,82.051,194.883,65,179"/>
</g>
<path fill="#FF0000" d="M129.666,93.855c9.787,16.287,1.758,39.08-17.938,50.916c-19.695,11.834-43.594,8.225-53.381-8.062
	c-9.783-16.287-1.752-39.082,17.945-50.914C95.988,73.957,119.883,77.568,129.666,93.855z"/>
<path fill="#CC3333" d="M264.359,136.711c-9.785,16.285-33.678,19.898-53.377,8.061c-19.693-11.832-27.727-34.629-17.941-50.914
	c9.787-16.287,33.686-19.896,53.377-8.064C266.117,97.631,274.146,120.424,264.359,136.711z"/>
<path fill="#336600" d="M204.699,287.516c-6.57-6.465,7.484-31.387,31.377-55.672c23.893-24.289,55.15-32.275,55.15-32.275
	s-7.477,31.383-31.375,55.67C235.961,279.523,211.268,293.977,204.699,287.516z"/>
<path fill="#336600" d="M204.801,299.646c-9.049,1.734-20.129-16.441-24.748-40.588c-4.621-24.154,8.018-46.863,8.018-46.863
	s20.127,16.439,24.748,40.592C217.441,276.938,213.852,297.918,204.801,299.646z"/>
<path fill="#336600" d="M197.012,300.488c-2.012-9.588,22.113-22.764,53.885-29.436c31.77-6.674,61.168,5.273,61.168,5.273
	s-22.107,22.764-53.883,29.432C226.412,312.432,199.025,310.07,197.012,300.488z"/>
<g>
	<path fill="#FFFFFF" d="M33.857,269.174c-0.792-0.726-1.721-1.271-2.786-1.634c-1.064-0.363-2.232-0.545-3.503-0.545
		c-1.535,0-2.876,0.269-4.023,0.805c-1.147,0.537-2.034,1.316-2.662,2.34c-0.396,0.628-0.673,1.387-0.829,2.278
		c-0.157,0.891-0.235,2.245-0.235,4.061v12.775h-7.254v-27.73h7.254v4.309c0.709-1.585,1.799-2.811,3.268-3.677
		c1.469-0.867,3.186-1.3,5.15-1.3c0.99,0,1.96,0.119,2.909,0.358s1.853,0.591,2.711,1.053V269.174z"/>
	<path fill="#FFFFFF" d="M63.321,273.433v15.821h-7.205v-3.095c-0.875,1.222-1.998,2.162-3.368,2.822s-2.88,0.99-4.531,0.99
		c-3.153,0-5.608-0.833-7.366-2.5s-2.637-3.995-2.637-6.982c0-3.235,1.048-5.624,3.145-7.168c2.096-1.543,5.339-2.314,9.73-2.314
		h5.026v-1.214c0-1.172-0.425-2.059-1.275-2.661s-2.101-0.904-3.751-0.904c-1.733,0-3.413,0.22-5.039,0.656
		c-1.626,0.438-3.322,1.135-5.088,2.093v-6.19c1.601-0.66,3.227-1.146,4.877-1.461c1.65-0.313,3.4-0.47,5.249-0.47
		c4.506,0,7.671,0.916,9.495,2.748C62.409,265.436,63.321,268.712,63.321,273.433z M53.219,276.23c-2.708,0-4.597,0.347-5.67,1.04
		c-1.073,0.693-1.609,1.882-1.609,3.565c0,1.255,0.372,2.253,1.114,2.996c0.743,0.742,1.75,1.114,3.021,1.114
		c1.915,0,3.4-0.723,4.457-2.167s1.585-3.462,1.585-6.054v-0.495H53.219z"/>
	<path fill="#FFFFFF" d="M71.888,261.523h14.36v22.159h9.013v5.571H69.957v-5.571h9.037v-16.588h-7.106V261.523z M78.994,248.03
		h7.254v8.467h-7.254V248.03z"/>
	<path fill="#FFFFFF" d="M106.526,277.691V256.3h-7.354v-5.571h14.608v26.963c0,2.179,0.338,3.723,1.015,4.63
		c0.676,0.908,1.824,1.361,3.441,1.361h5.793v5.571h-7.824c-3.45,0-5.926-0.892-7.428-2.674
		C107.277,284.797,106.526,281.835,106.526,277.691z"/>
	<path fill="#FFFFFF" d="M152.009,262.391v6.338c-1.337-0.858-2.728-1.506-4.172-1.943s-2.893-0.656-4.345-0.656
		c-1.618,0-2.839,0.235-3.664,0.705c-0.826,0.471-1.238,1.168-1.238,2.093c0,1.32,1.766,2.394,5.299,3.219l0.272,0.074l2.08,0.495
		c2.641,0.627,4.576,1.639,5.806,3.033c1.229,1.395,1.844,3.28,1.844,5.657c0,2.855-0.937,4.997-2.81,6.425
		c-1.874,1.428-4.692,2.142-8.455,2.142c-1.667,0-3.376-0.145-5.125-0.433c-1.75-0.289-3.524-0.723-5.323-1.3V281.9
		c1.601,0.908,3.231,1.602,4.89,2.08s3.264,0.718,4.815,0.718c1.7,0,2.988-0.248,3.863-0.743c0.875-0.495,1.312-1.213,1.312-2.153
		c0-0.925-0.31-1.635-0.928-2.13c-0.619-0.495-2.092-1.023-4.42-1.584l-2.005-0.446c-2.773-0.627-4.795-1.609-6.066-2.946
		s-1.906-3.128-1.906-5.373c0-2.674,0.965-4.753,2.896-6.239c1.931-1.485,4.646-2.228,8.146-2.228c1.568,0,3.132,0.128,4.692,0.384
		C149.025,261.495,150.54,261.879,152.009,262.391z"/>
	<path fill="#FFFFFF" d="M175.085,253.65v7.873h9.482v5.571h-9.482v13.122c0,1.238,0.301,2.125,0.903,2.661
		c0.603,0.537,1.605,0.805,3.009,0.805h5.57v5.571h-6.091c-4.159,0-6.974-0.664-8.442-1.993c-1.47-1.328-2.204-3.792-2.204-7.391
		v-12.775h-7.081v-5.571h7.081v-7.873H175.085z"/>
	<path fill="#FFFFFF" d="M190.956,275.413c0-4.473,1.159-8.018,3.479-10.634c2.318-2.616,5.435-3.924,9.347-3.924
		c3.928,0,7.052,1.308,9.371,3.924s3.479,6.161,3.479,10.634c0,4.474-1.159,8.019-3.479,10.635s-5.443,3.924-9.371,3.924
		c-3.912,0-7.028-1.308-9.347-3.924C192.115,283.432,190.956,279.887,190.956,275.413z M203.781,266.748
		c-1.733,0-3.095,0.764-4.086,2.29c-0.99,1.527-1.485,3.652-1.485,6.375c0,2.724,0.495,4.85,1.485,6.376
		c0.991,1.527,2.353,2.29,4.086,2.29c1.749,0,3.119-0.763,4.109-2.29c0.991-1.526,1.486-3.652,1.486-6.376
		c0-2.723-0.495-4.848-1.486-6.375C206.9,267.512,205.53,266.748,203.781,266.748z"/>
	<path fill="#FFFFFF" d="M223.365,250.729h7.255v20.229l8.715-9.434h8.79l-10.498,10.35l11.092,17.381h-8.021l-7.602-12.974
		l-2.476,2.377v10.597h-7.255V250.729z"/>
	<path fill="#FFFFFF" d="M267.189,292.25c-0.974,2.607-2.142,4.51-3.503,5.707c-1.362,1.196-3.017,1.795-4.965,1.795h-5.991v-5.521
		h2.946c1.485,0,2.575-0.252,3.269-0.755c0.692-0.504,1.395-1.672,2.104-3.504l0.544-1.485l-10.547-26.963h7.626l6.338,18l6.066-18
		h7.626L267.189,292.25z"/>
	<path fill="#FFFFFF" d="M282.541,275.413c0-4.473,1.159-8.018,3.479-10.634c2.318-2.616,5.435-3.924,9.347-3.924
		c3.928,0,7.052,1.308,9.371,3.924s3.479,6.161,3.479,10.634c0,4.474-1.159,8.019-3.479,10.635s-5.443,3.924-9.371,3.924
		c-3.912,0-7.028-1.308-9.347-3.924C283.7,283.432,282.541,279.887,282.541,275.413z M295.366,266.748
		c-1.733,0-3.095,0.764-4.086,2.29c-0.99,1.527-1.485,3.652-1.485,6.375c0,2.724,0.495,4.85,1.485,6.376
		c0.991,1.527,2.353,2.29,4.086,2.29c1.749,0,3.119-0.763,4.109-2.29c0.991-1.526,1.486-3.652,1.486-6.376
		c0-2.723-0.495-4.848-1.486-6.375C298.485,267.512,297.115,266.748,295.366,266.748z"/>
</g>
<path fill="#CC3333" d="M178.393,171.346c0,10.152-8.371,18.381-18.695,18.381c-10.328,0-18.699-8.229-18.699-18.381
	S178.393,161.193,178.393,171.346z"/>
<polygon fill="#CC3333" points="90.1,133.7 114.947,142.23 108.717,114.977 "/>
<polygon fill="#CC3333" points="64.723,124.709 69.396,147.68 88.9,133.7 "/>
<polygon fill="#CC3333" points="59.664,107.967 54.604,124.32 65.7,127.7 "/>
<polygon fill="#CC3333" points="109.711,118.802 133.248,115.754 114.1,98.9 "/>
<polygon fill="#CC3333" points="93.146,83.828 114.1,98.9 121.3,84.5 "/>
<polygon fill="#CC3333" points="74.066,88.891 93.146,83.828 92.758,79.936 "/>
<path fill="#FF0000" d="M111.527,93.828c6.799,11.318,1.223,27.156-12.463,35.381s-30.293,5.715-37.096-5.604
	c-6.797-11.316-1.217-27.156,12.469-35.379C88.127,80.002,104.73,82.51,111.527,93.828z"/>
</svg>
